<?xml version="1.0" encoding="UTF-8" standalone="no"?>
<svg
   viewBox="0 0 64 80"
   x="0px"
   y="0px"
   version="1.1"
   id="svg14"
   sodipodi:docname="noun-assault-rifle-6272626.svg"
   inkscape:version="1.2.2 (b0a8486541, 2022-12-01)"
   xmlns:inkscape="http://www.inkscape.org/namespaces/inkscape"
   xmlns:sodipodi="http://sodipodi.sourceforge.net/DTD/sodipodi-0.dtd"
   xmlns="http://www.w3.org/2000/svg"
   xmlns:svg="http://www.w3.org/2000/svg">
  <defs
     id="defs18" />
  <sodipodi:namedview
     id="namedview16"
     pagecolor="#ffffff"
     bordercolor="#000000"
     borderopacity="0.25"
     inkscape:showpageshadow="2"
     inkscape:pageopacity="0.0"
     inkscape:pagecheckerboard="0"
     inkscape:deskcolor="#d1d1d1"
     showgrid="false"
     inkscape:zoom="5.4125"
     inkscape:cx="53.487298"
     inkscape:cy="27.713626"
     inkscape:window-width="1920"
     inkscape:window-height="1048"
     inkscape:window-x="0"
     inkscape:window-y="32"
     inkscape:window-maximized="1"
     inkscape:current-layer="svg14" />
  <path
     d="m41.93,28.142c.893-1.691.453-3.813-1.14-4.981l-8.77-6.42-3.346,1.686,13.257,9.715Z"
     id="path2" />
  <path
     d="m55.41,46.881l-3.78-1.55-4.029-5.154-5.375.795.104,1.436,5.93,19.123c.21.73.65,1.36,1.26,1.81,1.31.96,3.11.87,4.32-.22l9.16-8.23-7.59-8.01Z"
     id="path4" />
  <path
     d="m47,34.331l-19.93-14.6-1.453-1.064-.446,4.544,7.42,5.439c.446.326.542.952.216,1.397-.553.554-1.22.347-1.397.216l-7.88-5.776c-.285-.209-.438-.553-.404-.904l.618-6.289-7.666-5.615.382-7.74c.02-.408-.211-.789-.584-.959-.371-.168-.811-.096-1.107.188l-4.463,4.277-4.748-3.483,1.765-2.363c.33-.442.239-1.069-.203-1.4-.442-.329-1.069-.239-1.399.203l-1.776,2.378-1.583-1.159L0,4.781l12.75,9.35-1.18,1.58,5.58,4.09.84,5.49,15.94,11.69,5.2,6.25,1.143-1.538-.377-5.209-5.487-4.021c-.445-.326-.542-.952-.216-1.397.327-.446.953-.543,1.397-.216l5.86,4.295c.237.174.386.442.406.734l.224,3.093,4.943-.731-.024-3.91ZM14.144,10.262l-2.202-1.615,2.395-2.296-.193,3.911Z"
     id="path6" />
  <path
     d="m31.357,42.299l-1.581-1.164c-2.31-1.715-1.065-4.864-.896-5.263l-3.774-2.882c-1.812,2.214-4.066,3.56-5.69,4.303-.135.062-.992.291-1.325-.493-.229-.503-.009-1.096.493-1.325,1.408-.644,3.348-1.797,4.907-3.668l-2.907-2.132c-4.773,5.832-12.854,5.726-12.854,5.726l1.83,7.45c8.314-.197,14.701-4.91,17.298-7.175-.712,2.365-.621,5.322,1.728,7.066l2.059,1.515-1.225,3.373-2.56,1.79,7.17,5.25,3.873-9.862-5.207-6.185-1.339,3.674Zm-15.895-3.656c-.552,0-1-.448-1-1s.448-1,1-1,1,.448,1,1-.448,1-1,1Z"
     id="path8" />
</svg>
