<?xml version="1.0" encoding="UTF-8" standalone="no"?>
<svg
   version="1.1"
   x="0px"
   y="0px"
   viewBox="0 0 100 125"
   style="enable-background:new 0 0 100 100;"
   xml:space="preserve"
   id="svg140"
   sodipodi:docname="noun-jet-fighter-6581233.svg"
   inkscape:version="1.2.2 (b0a8486541, 2022-12-01)"
   xmlns:inkscape="http://www.inkscape.org/namespaces/inkscape"
   xmlns:sodipodi="http://sodipodi.sourceforge.net/DTD/sodipodi-0.dtd"
   xmlns="http://www.w3.org/2000/svg"
   xmlns:svg="http://www.w3.org/2000/svg"><defs
     id="defs144" /><sodipodi:namedview
     id="namedview142"
     pagecolor="#ffffff"
     bordercolor="#000000"
     borderopacity="0.25"
     inkscape:showpageshadow="2"
     inkscape:pageopacity="0.0"
     inkscape:pagecheckerboard="0"
     inkscape:deskcolor="#d1d1d1"
     showgrid="false"
     inkscape:zoom="6.928"
     inkscape:cx="50.014434"
     inkscape:cy="62.5"
     inkscape:window-width="1920"
     inkscape:window-height="1080"
     inkscape:window-x="1920"
     inkscape:window-y="363"
     inkscape:window-maximized="1"
     inkscape:current-layer="svg140" /><style
     type="text/css"
     id="style132">
	.st0{fill-rule:evenodd;clip-rule:evenodd;}
</style><path
     d="M47.1,3.9c0.6-0.6,1.5-0.6,2,0c0.6,0.6,0.6,1.4,0,2L43.1,12l-3.5-0.5L47.1,3.9z M22.1,77.9l16.1-6.8l-9.3-9.3L22.1,77.9z   M39.7,73.5l-17.8,7.5l16.7,16.7l6.4-6.4L39.7,73.5z M18.9,78.1l7.5-17.8L8.6,55l-6.4,6.4L18.9,78.1z M49.5,63.7  c1.5-1.2,3.1-2.5,4.8-4l-14-14c-1.4,1.7-2.8,3.3-4,4.8c0,0.1-0.1,0.1-0.1,0.2c-1.4,1.7-2.7,3.3-3.7,4.6c-0.6,0.7-1.1,1.4-1.7,2  L30.1,59L41,69.9l1.7-0.7c0.6-0.5,1.3-1.1,2-1.7c1.3-1,2.8-2.3,4.6-3.7C49.4,63.8,49.4,63.7,49.5,63.7L49.5,63.7z M67.8,75.9  c0-1.7-0.6-3.3-1.9-4.6l-9.7-9.7c-1.4,1.2-2.7,2.2-3.9,3.2l14.4,14.4C67.5,78.3,67.8,77.1,67.8,75.9L67.8,75.9z M93.1,71.4L75,89.5  l0,0c0,0,0,0,0,0l-3.5,3.5c-0.7,0.7-1,1.6-1,2.5c0,0.9,0.3,1.8,1,2.5c0.7,0.7,1.6,1,2.5,1c0.9,0,1.8-0.3,2.5-1L98,76.4  c0.7-0.7,1-1.6,1-2.5c0-0.9-0.3-1.8-1-2.5c-0.7-0.7-1.6-1-2.5-1C94.6,70.4,93.7,70.8,93.1,71.4L93.1,71.4z M67.9,51.4  c-3.3,3-6.5,5.9-9.5,8.4l9.5,9.5c1.8,1.8,2.7,4.2,2.7,6.6c0,1.9-0.6,3.9-1.8,5.5l5.1,5.1l13.4-13.4l-5.6-35.5  c-4.2,4.6-8.9,9.2-13.4,13.4c-0.1,0.1-0.1,0.1-0.2,0.2C68.1,51.3,68,51.4,67.9,51.4L67.9,51.4z M49.8,34.8c-2.8,3-5.3,6-7.7,8.7  l14.3,14.3c2.8-2.4,5.7-4.9,8.7-7.7L49.8,34.8z M38.3,43.7l-9.7-9.7c-1.3-1.3-2.9-1.9-4.6-1.9c-1.2,0-2.4,0.3-3.4,1l14.4,14.4  C36.1,46.4,37.2,45.1,38.3,43.7L38.3,43.7z M66.3,18.3c-5,4.5-10,9.5-14.6,14.4l15.5,15.5c4.9-4.5,9.8-9.4,14.2-14.3  c0.1-0.2,0.3-0.4,0.5-0.6c9.6-10.9,16.6-21.9,14.4-29.7C88.6,1.5,77.7,8.3,67,17.8C66.8,18,66.6,18.2,66.3,18.3L66.3,18.3z M10.5,25  L28.6,6.9c0.7-0.7,1-1.6,1-2.5c0-0.9-0.3-1.8-1-2.5c-0.7-0.7-1.6-1-2.5-1c-0.9,0-1.8,0.3-2.5,1L2,23.6c-0.7,0.7-1,1.6-1,2.5  c0,0.9,0.3,1.8,1,2.5c0.7,0.7,1.6,1,2.5,1c0.9,0,1.8-0.3,2.5-1L10.5,25C10.5,25,10.5,25,10.5,25L10.5,25L10.5,25z M27.2,12.3  L13.5,26l5.1,5.1c1.6-1.2,3.6-1.8,5.5-1.8c2.4,0,4.8,0.9,6.6,2.7l9.5,9.5c2.6-3,5.4-6.3,8.5-9.6c0.1-0.1,0.1-0.2,0.2-0.2  c0,0,0.1-0.1,0.1-0.1c4.3-4.6,8.9-9.4,13.7-13.7L27.2,12.3z M94.1,50.9c0.6-0.6,1.5-0.6,2,0c0.6,0.6,0.6,1.4,0,2l-7.8,7.8l-0.6-3.5  L94.1,50.9z"
     id="path134" /></svg>
