<?xml version="1.0" encoding="UTF-8" standalone="no"?>
<svg
   version="1.1"
   viewBox="-5 -10 128 128"
   id="svg49"
   sodipodi:docname="tank.svg"
   inkscape:version="1.2.2 (b0a8486541, 2022-12-01)"
   width="128"
   height="128"
   inkscape:export-filename="tank.png"
   inkscape:export-xdpi="48"
   inkscape:export-ydpi="48"
   xmlns:inkscape="http://www.inkscape.org/namespaces/inkscape"
   xmlns:sodipodi="http://sodipodi.sourceforge.net/DTD/sodipodi-0.dtd"
   xmlns="http://www.w3.org/2000/svg"
   xmlns:svg="http://www.w3.org/2000/svg">
  <defs
     id="defs53" />
  <sodipodi:namedview
     id="namedview51"
     pagecolor="#ffffff"
     bordercolor="#000000"
     borderopacity="0.25"
     inkscape:showpageshadow="2"
     inkscape:pageopacity="0.0"
     inkscape:pagecheckerboard="0"
     inkscape:deskcolor="#d1d1d1"
     showgrid="false"
     inkscape:zoom="1.662963"
     inkscape:cx="61.336302"
     inkscape:cy="158.75278"
     inkscape:window-width="1920"
     inkscape:window-height="1048"
     inkscape:window-x="0"
     inkscape:window-y="32"
     inkscape:window-maximized="1"
     inkscape:current-layer="svg49" />
  <g
     id="g1408"
     transform="matrix(0.67849137,0,0,0.67849137,-22.391466,-9.1874387)">
    <path
       d="M 44.335155,126.42485 H 181.71371 c -0.69597,-0.85975 -1.30189,-1.78498 -1.80137,-2.77569 H 46.137034 c -0.499467,0.99075 -1.105375,1.91599 -1.801375,2.77569 z"
       id="path9"
       style="stroke-width:2.09614" />
    <path
       d="m 44.416905,144.53546 c 1.596667,2.59564 4.44611,4.14322 7.492003,4.07761 h 9.792931 V 131.96683 H 33.953211 Z"
       id="path11"
       style="stroke-width:2.09614" />
    <path
       d="m 67.245905,131.96704 h 13.870541 v 16.64624 H 67.245905 Z"
       id="path13"
       style="stroke-width:2.09614" />
    <path
       d="m 86.666591,131.96704 h 13.870539 v 16.64624 H 86.666591 Z"
       id="path15"
       style="stroke-width:2.09614" />
    <path
       d="m 106.08937,131.96704 h 13.87054 v 16.64624 h -13.87054 z"
       id="path17"
       style="stroke-width:2.09614" />
    <path
       d="m 125.51006,131.96704 h 13.87054 v 16.64624 h -13.87054 z"
       id="path19"
       style="stroke-width:2.09614" />
    <path
       d="M 144.92446,131.96704 H 158.795 v 16.64624 h -13.87054 z"
       id="path21"
       style="stroke-width:2.09614" />
    <path
       d="m 164.34724,148.61454 h 9.79293 c 3.04589,0.0655 5.89538,-1.48203 7.49201,-4.07761 l 0.30295,-0.4176 10.15325,-12.15107 h -27.74024 z"
       id="path23"
       style="stroke-width:2.09614" />
    <path
       d="m 192.95528,107.03561 h -0.0328 c -5.35499,0.14738 -9.57178,4.61799 -9.41625,9.97299 0.15557,5.34682 4.61799,9.56361 9.97299,9.41625 h 3.25069 l 1.83411,-2.19443 c 1.22002,-2.25985 1.85869,-4.77353 1.85869,-7.33648 v -2.73483 c -0.2866,-3.93842 -3.52089,-7.01722 -7.46749,-7.1235 z"
       id="path25"
       style="stroke-width:2.09614" />
    <path
       d="m 42.278847,116.71346 c 0,-5.14202 -4.020385,-9.39172 -9.154238,-9.67826 h -0.03275 c -3.946602,0.10643 -7.172765,3.18507 -7.459306,7.1235 v 2.75118 c 0.0082,2.55476 0.646844,5.07662 1.858686,7.33647 l 1.834118,2.19444 h 3.24251 c 5.363169,-0.008 9.710972,-4.36416 9.710972,-9.72733 z"
       id="path27"
       style="stroke-width:2.09614" />
    <path
       d="m 144.92446,107.00207 v 5.55141 h -5.54323 v -5.55141 h -24.97335 v 5.55141 h -5.54323 v -5.55141 H 83.891309 v 5.55141 h -5.543228 v -5.55141 H 44.334107 c 2.268017,2.72666 3.504527,6.16558 3.496352,9.71098 0,0.46673 -0.03276,0.92525 -0.09007,1.38378 H 178.29812 c -0.0491,-0.45853 -0.0819,-0.91705 -0.0819,-1.38378 -0.008,-3.5454 1.22821,-6.98432 3.49635,-9.71098 z"
       id="path29"
       style="stroke-width:2.09614" />
    <path
       d="m 41.255934,101.45151 h 37.091099 v -8.319137 h 5.543228 v 8.319137 h 24.973349 v -8.319137 h 5.54322 v 8.319137 h 24.97335 v -8.319137 h 5.54323 v 8.319137 h 39.86848 l 5.54323,-4.88001 h 0.008 c 1.77681,-1.416525 2.25984,-3.922077 1.13814,-5.903553 -1.25277,-1.981497 -3.45527,-3.152376 -5.79707,-3.086977 H 40.363546 c -2.341801,-0.0655 -4.544419,1.105376 -5.797069,3.086977 -1.121767,1.981497 -0.638671,4.486986 1.138138,5.903553 z"
       id="path31"
       style="stroke-width:2.09614" />
    <path
       d="m 72.796469,70.933889 h 27.740241 v 11.09484 H 72.796469 Z"
       id="path33"
       style="stroke-width:2.09614" />
    <path
       d="m 67.245905,65.391709 h 38.843465 v 16.646243 h 22.18968 V 57.064606 c 0,-1.531163 -1.23638,-2.767526 -2.76752,-2.775701 H 50.599872 c -1.531163,0.0082 -2.767526,1.24458 -2.767526,2.775701 v 24.973346 h 19.421943 z"
       id="path35"
       style="stroke-width:2.09614" />
    <path
       d="m 107.92349,39.17326 c -0.48309,-0.941625 -1.44929,-1.531163 -2.49733,-1.531163 H 70.701592 c -1.056263,0 -2.022434,0.589538 -2.497334,1.531163 l -4.773527,9.571789 h 49.259159 z"
       id="path37"
       style="stroke-width:2.09614" />
    <path
       d="M 189.32058,51.020612 V 63.11426 l 11.37321,2.276192 h 2.49734 V 48.74421 h -2.49734 z"
       id="path39"
       style="stroke-width:2.09614" />
    <path
       d="m 208.73499,48.74421 h 5.5514 v 16.646242 h -5.5514 z"
       id="path41"
       style="stroke-width:2.09614" />
    <path
       d="m 133.82962,59.839049 h 49.93831 v -5.551402 h -50.44558 c 0.33572,0.892493 0.50766,1.825922 0.49947,2.775701 z"
       id="path43"
       style="stroke-width:2.09614" />
  </g>
</svg>
