<?xml version="1.0" encoding="UTF-8" standalone="no"?>
<svg
   version="1.1"
   viewBox="-5.0 -10.0 110.0 135.0"
   id="svg49"
   sodipodi:docname="noun-tank-7378639.svg"
   inkscape:version="1.2.2 (b0a8486541, 2022-12-01)"
   xmlns:inkscape="http://www.inkscape.org/namespaces/inkscape"
   xmlns:sodipodi="http://sodipodi.sourceforge.net/DTD/sodipodi-0.dtd"
   xmlns="http://www.w3.org/2000/svg"
   xmlns:svg="http://www.w3.org/2000/svg">
  <defs
     id="defs53" />
  <sodipodi:namedview
     id="namedview51"
     pagecolor="#ffffff"
     bordercolor="#000000"
     borderopacity="0.25"
     inkscape:showpageshadow="2"
     inkscape:pageopacity="0.0"
     inkscape:pagecheckerboard="0"
     inkscape:deskcolor="#d1d1d1"
     showgrid="false"
     inkscape:zoom="6.6518519"
     inkscape:cx="54.947105"
     inkscape:cy="120.8686"
     inkscape:window-width="1920"
     inkscape:window-height="1080"
     inkscape:window-x="1920"
     inkscape:window-y="363"
     inkscape:window-maximized="1"
     inkscape:current-layer="svg49" />
  <path
     d="m13.922 64.633h65.539c-0.33203-0.41016-0.62109-0.85156-0.85938-1.3242h-63.82c-0.23828 0.47266-0.52734 0.91406-0.85938 1.3242z"
     id="path9" />
  <path
     d="m13.961 73.273c0.76172 1.2383 2.1211 1.9766 3.5742 1.9453h4.6719v-7.9414h-13.238z"
     id="path11" />
  <path
     d="m24.852 67.277h6.6172v7.9414h-6.6172z"
     id="path13" />
  <path
     d="m34.117 67.277h6.6172v7.9414h-6.6172z"
     id="path15" />
  <path
     d="m43.383 67.277h6.6172v7.9414h-6.6172z"
     id="path17" />
  <path
     d="m52.648 67.277h6.6172v7.9414h-6.6172z"
     id="path19" />
  <path
     d="m61.91 67.277h6.6172v7.9414h-6.6172z"
     id="path21" />
  <path
     d="m71.176 75.219h4.6719c1.4531 0.03125 2.8125-0.70703 3.5742-1.9453l0.14453-0.19922 4.8438-5.7969h-13.234z"
     id="path23" />
  <path
     d="m84.824 55.383h-0.015625c-2.5547 0.070313-4.5664 2.2031-4.4922 4.7578 0.074219 2.5508 2.2031 4.5625 4.7578 4.4922h1.5508l0.875-1.0469c0.58203-1.0781 0.88672-2.2773 0.88672-3.5v-1.3047c-0.13672-1.8789-1.6797-3.3477-3.5625-3.3984z"
     id="path25" />
  <path
     d="m12.941 60c0-2.4531-1.918-4.4805-4.3672-4.6172h-0.015625c-1.8828 0.050782-3.4219 1.5195-3.5586 3.3984v1.3125c0.003906 1.2188 0.30859 2.4219 0.88672 3.5l0.875 1.0469h1.5469c2.5586-0.003906 4.6328-2.082 4.6328-4.6406z"
     id="path27" />
  <path
     d="m61.91 55.367v2.6484h-2.6445v-2.6484h-11.914v2.6484h-2.6445v-2.6484h-11.914v2.6484h-2.6445v-2.6484h-16.227c1.082 1.3008 1.6719 2.9414 1.668 4.6328 0 0.22266-0.015625 0.44141-0.042969 0.66016h62.285c-0.023437-0.21875-0.039062-0.4375-0.039062-0.66016-0.003907-1.6914 0.58594-3.332 1.668-4.6328z"
     id="path29" />
  <path
     d="m12.453 52.719h17.695v-3.9688h2.6445v3.9688h11.914v-3.9688h2.6445v3.9688h11.914v-3.9688h2.6445v3.9688h19.02l2.6445-2.3281h0.003906c0.84766-0.67578 1.0781-1.8711 0.54297-2.8164-0.59766-0.94531-1.6484-1.5039-2.7656-1.4727h-69.328c-1.1172-0.03125-2.168 0.52734-2.7656 1.4727-0.53516 0.94531-0.30469 2.1406 0.54297 2.8164z"
     id="path31" />
  <path
     d="m27.5 38.16h13.234v5.293h-13.234z"
     id="path33" />
  <path
     d="m24.852 35.516h18.531v7.9414h10.586v-11.914c0-0.73047-0.58984-1.3203-1.3203-1.3242h-35.738c-0.73047 0.003906-1.3203 0.59375-1.3203 1.3242v11.914h9.2656z"
     id="path35" />
  <path
     d="m44.258 23.008c-0.23047-0.44922-0.69141-0.73047-1.1914-0.73047h-16.566c-0.50391 0-0.96484 0.28125-1.1914 0.73047l-2.2773 4.5664h23.5z"
     id="path37" />
  <path
     d="m83.09 28.66v5.7695l5.4258 1.0859h1.1914v-7.9414h-1.1914z"
     id="path39" />
  <path
     d="m92.352 27.574h2.6484v7.9414h-2.6484z"
     id="path41" />
  <path
     d="m56.617 32.867h23.824v-2.6484h-24.066c0.16016 0.42578 0.24219 0.87109 0.23828 1.3242z"
     id="path43" />
</svg>
