<?xml version="1.0" encoding="UTF-8" standalone="no"?>
<svg
   viewBox="0 0 128 128"
   x="0px"
   y="0px"
   version="1.1"
   id="svg26"
   sodipodi:docname="artillery.svg"
   inkscape:version="1.2.2 (b0a8486541, 2022-12-01)"
   width="128"
   height="128"
   xmlns:inkscape="http://www.inkscape.org/namespaces/inkscape"
   xmlns:sodipodi="http://sodipodi.sourceforge.net/DTD/sodipodi-0.dtd"
   xmlns="http://www.w3.org/2000/svg"
   xmlns:svg="http://www.w3.org/2000/svg">
  <defs
     id="defs30" />
  <sodipodi:namedview
     id="namedview28"
     pagecolor="#ffffff"
     bordercolor="#000000"
     borderopacity="0.25"
     inkscape:showpageshadow="2"
     inkscape:pageopacity="0.0"
     inkscape:pagecheckerboard="0"
     inkscape:deskcolor="#d1d1d1"
     showgrid="false"
     inkscape:zoom="5.4125"
     inkscape:cx="23.464203"
     inkscape:cy="56.720554"
     inkscape:window-width="1920"
     inkscape:window-height="1048"
     inkscape:window-x="0"
     inkscape:window-y="32"
     inkscape:window-maximized="1"
     inkscape:current-layer="svg26" />
  <g
     id="g1570"
     transform="matrix(1.9999715,0,0,1.9999715,1.0094786e-6,-5.0010167)">
    <polygon
       points="35.304,27.446 32.41,25.651 27.169,34.17 29.894,35.856 "
       id="polygon2" />
    <polygon
       points="9.02,19.53 18.98,26.242 21.636,21.912 11.164,16.059 "
       id="polygon4" />
    <polygon
       points="23.385,22.886 20.638,27.365 26.538,31.379 29.633,26.349 "
       id="polygon6" />
    <polygon
       points="4.26,17.731 7.207,18.661 9.57,14.836 7.4,12.621 3.14,10.001 0,15.111 "
       id="polygon8" />
    <polygon
       points="49.837,35.466 49.626,38.631 53.765,40.471 55,38.001 "
       id="polygon10" />
    <polygon
       points="50.794,47.09 56,46.001 56.682,43.955 49.485,40.757 49.081,46.824 "
       id="polygon12" />
    <path
       d="m 39.81,47.471 c -0.52,-0.83 -1.2,-1.54 -2,-2.1 -1.22,-0.86 -2.7,-1.37 -4.31,-1.37 -1.81,0 -3.46,0.64 -4.76,1.71 -1.67,1.37 -2.74,3.46 -2.74,5.79 0,4.14 3.36,7.5 7.5,7.5 3.57,0 6.56,-2.5 7.31,-5.84 0.13,-0.53 0.19,-1.09 0.19,-1.66 0,-1.49 -0.43,-2.87 -1.18,-4.03 z m -6.31,7.03 c -1.66,0 -3,-1.34 -3,-3 0,-1.66 1.34,-3 3,-3 1.66,0 3,1.34 3,3 0,1.66 -1.34,3 -3,3 z"
       id="path14" />
    <path
       d="m 44.495,35.248 c 0,0 -0.004,0.006 -0.006,0.009 l -4.613,9.22 c 0.341,0.31 0.662,0.639 0.953,0.995 0.052,0 0.104,0.005 0.156,0.013 l 6.111,1.019 0.917,-13.749 -2.019,-0.505 -1.497,2.991 c 0,0 0,0.005 -0.002,0.007 z"
       id="path16" />
    <path
       d="m 29,41.001 0.387,1.94 c 1.271,-0.616 2.661,-0.94 4.113,-0.94 1.678,0 3.29,0.463 4.729,1.297 l 2.138,-4.273 -2.738,-1.095 c -0.513,-0.205 -0.762,-0.787 -0.557,-1.3 0.205,-0.514 0.786,-0.766 1.3,-0.558 l 2.893,1.157 0.992,-1.982 -2.704,-1.352 c -0.494,-0.247 -0.694,-0.848 -0.447,-1.342 0.247,-0.494 0.847,-0.692 1.342,-0.447 L 43.152,33.458 45,29.764 v -2.763 h -7 l -1.14,1.77 -5.41,8.41 z"
       id="path18" />
    <path
       d="M 63.97,57.759 63,53.878 V 51.013 L 47.866,48.659 42.203,47.715 C 42.721,48.9 43,50.183 43,51.501 c 0,0.26 -0.023,0.509 -0.042,0.76 l 17.967,1.56 0.795,3.18 h -3.719 c -0.552,0 -1,0.447 -1,1 0,0.553 0.448,1 1,1 h 5 c 0.308,0 0.599,-0.142 0.788,-0.385 0.189,-0.242 0.257,-0.559 0.182,-0.857 z"
       id="path20" />
  </g>
</svg>
