<?xml version="1.0" encoding="UTF-8" standalone="no"?>
<svg
   version="1.1"
   x="0px"
   y="0px"
   viewBox="0 0 128 128"
   xml:space="preserve"
   id="svg140"
   sodipodi:docname="fighter_jet.svg"
   inkscape:version="1.2.2 (b0a8486541, 2022-12-01)"
   width="128"
   height="128"
   xmlns:inkscape="http://www.inkscape.org/namespaces/inkscape"
   xmlns:sodipodi="http://sodipodi.sourceforge.net/DTD/sodipodi-0.dtd"
   xmlns="http://www.w3.org/2000/svg"
   xmlns:svg="http://www.w3.org/2000/svg"><defs
     id="defs144" /><sodipodi:namedview
     id="namedview142"
     pagecolor="#ffffff"
     bordercolor="#000000"
     borderopacity="0.25"
     inkscape:showpageshadow="2"
     inkscape:pageopacity="0.0"
     inkscape:pagecheckerboard="0"
     inkscape:deskcolor="#d1d1d1"
     showgrid="false"
     inkscape:zoom="4.8988358"
     inkscape:cx="47.766451"
     inkscape:cy="55.115136"
     inkscape:window-width="1920"
     inkscape:window-height="1048"
     inkscape:window-x="0"
     inkscape:window-y="32"
     inkscape:window-maximized="1"
     inkscape:current-layer="svg140" /><style
     type="text/css"
     id="style132">
	.st0{fill-rule:evenodd;clip-rule:evenodd;}
</style><path
     d="m 60.216106,3.9143727 c 0.782876,-0.7828748 1.957188,-0.7828748 2.609583,0 0.782874,0.7828748 0.782874,1.8267077 0,2.6095825 L 54.996942,14.48318 50.430173,13.830785 Z M 27.59633,100.46891 48.603467,91.59633 36.46891,79.461774 Z m 22.964322,-5.741081 -23.22528,9.785931 21.790011,21.79001 8.350662,-8.35066 z M 23.421,100.72987 33.206933,77.504587 9.9816525,70.589195 1.6309893,78.939857 Z M 63.347605,81.940877 c 1.957187,-1.56575 4.044853,-3.261978 6.262996,-5.219164 L 51.343528,58.454639 c -1.826707,2.218144 -3.653416,4.30581 -5.219165,6.262996 0,0.130479 -0.130479,0.130479 -0.130479,0.260958 -1.826707,2.218145 -3.522935,4.305811 -4.827727,6.00204 -0.782875,0.913353 -1.435269,1.826706 -2.218144,2.60958 l -0.913354,2.218146 14.222222,14.222222 2.218145,-0.913354 c 0.782875,-0.652395 1.696228,-1.43527 2.609582,-2.218144 1.696229,-1.304791 3.653415,-3.00102 6.002038,-4.827726 0.13048,0 0.13048,-0.13048 0.260959,-0.13048 z m 23.877675,15.91845 c 0,-2.218145 -0.782873,-4.305809 -2.479103,-6.002038 L 72.089704,79.200815 c -1.826706,1.56575 -3.522935,2.870542 -5.088684,4.175331 l 18.788991,18.788994 c 1.043832,-1.17431 1.435269,-2.740064 1.435269,-4.305813 z m 33.01121,-5.87156 -23.616714,23.616723 v 0 c 0,0 0,0 0,0 l -4.566769,4.56676 c -0.913353,0.91337 -1.30479,2.08767 -1.30479,3.26198 0,1.1743 0.391437,2.34864 1.30479,3.26198 0.913354,0.91336 2.087666,1.30479 3.261978,1.30479 1.174313,0 2.348625,-0.39143 3.261977,-1.30479 L 126.62997,98.511723 c 0.91335,-0.913354 1.30478,-2.087666 1.30478,-3.261978 0,-1.174312 -0.39143,-2.348624 -1.30478,-3.261978 -0.91335,-0.913352 -2.08767,-1.30479 -3.26198,-1.30479 -1.17432,0 -2.34862,0.521916 -3.1315,1.30479 z M 87.355759,65.891947 c -4.30581,3.914373 -8.48114,7.698266 -12.395513,10.960244 l 12.395513,12.395515 c 2.348624,2.348624 3.522937,5.480123 3.522937,8.611621 0,2.479103 -0.782875,5.088683 -2.348624,7.176353 l 6.654435,6.65443 17.484193,-17.484197 -7.30682,-46.320082 c -5.480127,6.002039 -11.612645,12.004077 -17.484203,17.4842 -0.13048,0.130479 -0.13048,0.130479 -0.260959,0.260958 0,0.13048 -0.130478,0.260958 -0.260959,0.260958 z M 63.739042,44.232415 c -3.653414,3.914374 -6.915393,7.828747 -10.046891,11.351683 L 72.350664,74.24261 c 3.653414,-3.131499 7.437307,-6.393475 11.351682,-10.046891 z M 48.733946,55.845056 36.077472,43.188583 c -1.696227,-1.696228 -3.783893,-2.479104 -6.002039,-2.479104 -1.565748,0 -3.131498,0.391438 -4.436289,1.304792 l 18.788992,18.788991 c 1.43527,-1.435271 2.870539,-3.131498 4.30581,-4.958206 z M 85.268094,22.703363 c -6.523955,5.871561 -13.04791,12.395516 -19.049949,18.788992 l 20.224262,20.224262 c 6.393475,-5.871561 12.786952,-12.265036 18.528033,-18.658514 0.13048,-0.260957 0.39144,-0.521914 0.65239,-0.782874 12.526,-14.222222 21.65953,-28.574924 18.78899,-38.7522931 -10.04689,-2.74006091 -24.26911,6.1325169 -38.230371,18.5280331 -0.26096,0.260957 -0.521918,0.521916 -0.913355,0.652394 z M 12.460754,31.445465 36.077472,7.8287465 c 0.913354,-0.9133545 1.304791,-2.0876661 1.304791,-3.2619776 0,-1.1743116 -0.391437,-2.3486238 -1.304791,-3.2619779 C 35.164119,0.391437 33.989807,0 32.815495,0 31.641183,0 30.466871,0.391437 29.553518,1.304791 L 1.370031,29.618755 c -0.91335353,0.913355 -1.30479054,2.087666 -1.30479054,3.261979 0,1.174311 0.39143701,2.348625 1.30479054,3.261977 0.9133534,0.913354 2.0876649,1.304792 3.2619776,1.304792 1.1743115,0 2.3486242,-0.391438 3.2619778,-1.304792 l 4.5667676,-4.697246 c 0,0 0,0 0,0 z m 21.790011,-16.570846 -17.875637,17.875636 6.654435,6.654434 c 2.087665,-1.565749 4.697246,-2.348624 7.17635,-2.348624 3.131498,0 6.262997,1.174312 8.61162,3.522936 l 12.395516,12.395515 c 3.392456,-3.914373 7.045871,-8.220184 11.090723,-12.525993 0.130479,-0.13048 0.130479,-0.260959 0.260959,-0.260959 0,0 0.130478,-0.130479 0.130478,-0.130479 5.610601,-6.00204 11.612641,-12.265036 17.875638,-17.875636 z m 87.290515,50.364932 c 0.78289,-0.782874 1.95719,-0.782874 2.60959,0 0.78287,0.782875 0.78287,1.826707 0,2.609584 l -10.17737,10.17737 -0.78288,-4.56677 z"
     id="path134"
     style="stroke-width:1.30479" /></svg>
